<svg width="2065" height="1526" viewBox="0 0 2065 1526" fill="none" xmlns="http://www.w3.org/2000/svg">
<path d="M1490.52 564.94C1597.64 472.886 1761.29 473.487 1870.77 568.677C1977.54 661.716 2005.46 823.157 1919.59 950.412C1881.62 1006.42 1830.3 1045.77 1765.62 1065.93C1675.74 1093.9 1590.73 1080.89 1511.62 1029.19C1494.35 1048.9 1477.14 1067.95 1460.34 1087.64C1458.36 1089.95 1458.72 1094.71 1459.42 1098.25C1462.2 1112.85 1468.73 1127.32 1468.13 1141.75C1465.74 1204.56 1409.8 1251 1345.64 1244.27C1337.74 1243.43 1333.03 1245.18 1328 1251.17C1309.84 1272.31 1290.81 1292.82 1272.17 1313.52C1261 1325.89 1246.82 1330.23 1230.39 1326.88C1211.7 1322.95 1197.07 1312.6 1184.93 1298.33C1165.34 1275.15 1165.77 1253.51 1185.83 1230.71C1196.63 1218.63 1207.25 1206.46 1216.79 1195.64C1196.58 1186.42 1176.15 1178.72 1157.49 1168.14C1138.45 1157.39 1121.09 1143.96 1104.94 1132.92C1104.43 1133.76 1103.92 1134.6 1103.42 1135.45C1130.87 1076.09 1143.04 1019.93 1146.71 979.877C1178.33 1028.8 1221.27 1061.58 1280.28 1071.51C1283.11 1071.88 1287.72 1069.84 1289.23 1067.54C1311.19 1032.51 1350.8 1013.79 1391.44 1033.24C1393.72 1034.28 1399.01 1032.78 1400.9 1030.66C1418.3 1011.7 1435.4 992.37 1452.41 973.235C1345.29 837.519 1377.76 661.78 1490.52 564.94ZM1338.07 1111.42C1301.36 1148 1262.71 1182.79 1233.17 1225.86C1234.14 1226.76 1235.11 1227.66 1236.08 1228.57C1270.66 1190.09 1305.43 1151.7 1340.01 1113.22C1339.33 1112.68 1338.74 1111.95 1338.07 1111.42ZM1766.9 583.382C1658.38 534.593 1527.03 586.871 1475.86 699.609C1425.99 809.493 1475.79 941.143 1584.83 991.319C1698.83 1043.75 1831.02 988.638 1877.25 881.691L1877.52 881.587C1925.83 780.184 1889.35 638.516 1766.9 583.382ZM1766.78 643.781C1824.55 680.691 1856.13 739.681 1847.19 810.302C1838.99 875.748 1792.14 924.488 1744.36 942.929C1788.09 903.567 1818.29 858.035 1822.31 798.727C1826.25 740.078 1807.98 688.764 1766.78 643.781Z" fill="black"/>
<path d="M457.445 848.092L565.052 898.731L526.498 942.863L437.907 1019L457.445 1056.97L365.657 1019L235.895 965.192C211.635 943.038 158.682 898.731 140.947 898.731C118.78 898.731 102.961 819.605 102.961 803.78C102.961 787.955 147.29 718.328 163.115 696.172C175.775 678.448 189.482 652.919 194.754 642.37L406.807 718.328L457.445 848.092Z" fill="#235EE7"/>
<path d="M1316.82 524.813L1215.2 412.298H975.311L724.332 468.555L680.752 600.681C680.752 600.681 664.707 720.128 663.915 741.324C663.123 762.519 603.3 873.053 603.3 873.053L376.884 1090.95L333.898 1189.4L376.884 1320.54L454.931 1377.78L663.123 1455.83L829.716 1388.09L1050.59 1272.2L1111.2 1114.52L1134.77 1015.68L1215.2 934.065L1290.07 860.376L1316.82 722.902L1336.63 584.239L1316.82 524.813ZM1018.3 737.362C999.082 742.909 992.347 727.458 987.593 713.79C969.963 663.277 953.521 612.368 935.891 559.478C1008.39 552.545 1008.99 552.545 1029.59 620.291C1037.71 646.241 1042.66 673.181 1049.2 699.725C1055.93 726.467 1036.12 732.014 1018.3 737.362ZM1248.08 722.902C1237.38 668.625 1226.69 613.953 1215.2 556.309C1225.7 554.526 1238.97 551.356 1252.44 550.96C1257.19 550.762 1265.31 556.903 1266.3 561.459C1275.22 600.284 1285.91 639.11 1289.48 678.53C1292.45 711.412 1284.92 715.374 1248.08 722.902Z" fill="#F7BF33"/>
<path d="M1366.9 422.787C1302.32 393.272 1233.39 383.566 1163.66 382.773C1069.17 381.585 974.483 383.566 879.995 387.924C813.04 391.093 747.077 403.177 684.282 428.334C620.3 453.887 598.708 485.582 599.698 553.922C599.897 567.591 601.283 581.457 601.283 595.125C600.887 657.127 602.273 718.931 598.51 780.735C597.321 799.157 585.04 819.956 572.164 834.219C551.365 857.197 522.047 856.603 495.702 844.717C476.091 836.001 457.867 822.531 455.291 795.987C461.234 798.563 465.196 800.345 469.158 802.128C535.517 834.417 566.419 817.183 568.796 743.098C570.777 673.37 569.193 603.643 568.4 533.915C567.806 482.61 589.596 445.37 633.968 419.816C683.094 391.489 736.578 377.227 791.449 366.53C911.095 342.958 1032.13 338.798 1153.56 340.58C1237.74 341.571 1319.95 348.9 1390.27 408.129C1389.48 399.017 1390.27 392.678 1388.09 387.33C1377.2 360.984 1365.31 334.836 1354.02 308.688C1292.81 164.281 1193.17 64.4442 1037.08 24.6283C940.61 -0.132881 844.735 -7.46218 746.284 9.57349C502.041 51.5684 344.956 242.328 331.486 482.214C328.514 532.331 334.655 583.042 336.438 628.206C290.283 611.566 240.761 589.38 188.862 576.307C92.9864 552.338 17.7124 596.512 2.85575 683.869C-1.89839 711.601 1.6672 742.701 9.19459 770.038C45.4449 898.994 136.566 976.051 257.4 1022.4C285.925 1033.3 315.837 1041.02 345.748 1050.53C343.965 1054.89 342.579 1058.85 340.598 1062.62C305.536 1134.13 298.801 1206.63 331.089 1281.31C334.061 1288.44 330.495 1300.92 325.939 1308.25C299.197 1349.05 271.069 1389.07 243.336 1429.28C244.525 1432.05 245.515 1434.83 246.704 1437.6C282.558 1431.66 319.204 1428.49 354.266 1419.37C400.421 1407.09 438.652 1411.25 484.411 1434.03C639.514 1511.49 793.232 1492.27 936.648 1400.36C1060.45 1321.12 1136.92 1209.6 1148.01 1058.85C1148.6 1050.93 1157.12 1042.41 1164.05 1036.86C1193.37 1013.29 1226.65 993.878 1252.2 966.938C1298.36 918.407 1317.77 855.612 1332.83 791.431C1334.81 782.716 1340.95 771.622 1348.48 767.859C1369.67 756.964 1375.02 738.542 1373.83 718.733C1370.46 653.561 1365.71 588.588 1360.36 523.615C1359.17 508.56 1357.79 497.665 1374.03 487.166C1406.32 466.367 1402.36 439.031 1366.9 422.787ZM751.831 74.7448C853.054 58.8977 954.278 60.8786 1052.13 93.5633C1155.93 128.229 1225.26 200.531 1263.5 298.784C1201.1 295.02 1138.1 291.454 1075.11 286.898C1069.37 286.502 1060.85 281.154 1058.67 276.003C999.244 133.379 823.341 83.0646 700.13 101.091C673.388 105.052 646.448 108.816 619.705 112.58C619.111 110.401 618.715 108.222 618.121 106.043C662.691 95.5442 706.865 81.876 751.831 74.7448ZM971.512 1269.82C847.706 1282.3 736.38 1245.45 631.393 1182.26C562.854 1140.86 502.04 1091.93 462.225 1018.84C486.788 998.435 511.153 978.229 537.102 956.836C601.679 1035.48 685.273 1084.41 778.375 1119.47C870.486 1154.33 963.588 1177.11 1070.95 1153.34C1047.58 1191.57 1029.35 1224.65 1007.56 1254.76C1001.03 1263.87 984.189 1268.63 971.512 1269.82ZM945.166 1009.73C837.405 989.917 759.16 944.356 680.717 855.216C725.485 802.722 720.929 739.73 717.363 676.936C715.779 650.392 712.807 623.848 713.005 597.304C713.798 532.529 744.502 492.911 808.286 481.422C862.959 471.517 918.82 465.575 974.285 461.613C1036.09 457.453 1098.29 455.076 1160.09 456.265C1187.43 456.859 1214.96 466.763 1241.31 475.677C1250.42 478.847 1255.97 491.921 1268.25 506.381C1220.71 509.947 1181.68 515.295 1142.46 515.097C1042.63 514.899 942.987 511.729 843.15 511.135C820.172 510.937 796.995 515.493 774.413 519.851C746.284 525.398 733.211 544.81 729.249 572.345C715.779 665.843 747.275 724.675 830.67 768.255C932.686 821.739 1029.75 810.646 1122.65 748.842C1148.6 731.608 1168.41 732.599 1192.58 748.644C1216.75 764.689 1242.89 778.159 1269.83 793.61C1238.73 953.072 1108.39 1039.84 945.166 1009.73ZM1018.26 737.353C999.046 742.9 992.311 727.449 987.557 713.78C969.927 663.268 953.486 612.359 935.856 559.469C1008.36 552.536 1008.95 552.536 1029.55 620.282C1037.67 646.232 1042.63 673.172 1049.16 699.716C1055.9 726.458 1036.09 732.005 1018.26 737.353ZM1248.04 722.893C1237.35 668.616 1226.65 613.944 1215.16 556.3C1225.66 554.517 1238.93 551.347 1252.4 550.951C1257.16 550.753 1265.28 556.894 1266.27 561.45C1275.18 600.275 1285.88 639.101 1289.44 678.521C1292.42 711.403 1284.89 715.365 1248.04 722.893ZM447.764 516.484C484.411 516.88 496.296 529.161 496.098 566.402C496.098 595.917 481.835 614.142 458.263 614.538C433.7 614.934 413.891 587.598 413.693 552.932C413.693 526.19 422.805 516.286 447.764 516.484ZM187.673 722.893C207.482 683.275 299.791 680.7 356.445 721.506C362.388 725.864 364.368 735.768 367.934 743.296C385.366 779.15 397.251 819.56 421.616 850.066C441.425 874.827 475.893 888.099 505.21 907.512C503.427 910.285 499.267 916.822 494.909 923.161C494.117 924.349 492.334 925.142 491.146 925.934C422.805 898.796 354.662 871.856 286.321 844.915C285.331 846.698 284.34 848.283 283.35 849.868C343.965 886.316 404.382 922.963 464.998 959.411C441.623 999.821 435.681 1002 386.753 993.482C306.526 979.22 88.6284 841.746 187.673 722.893ZM440.831 1325.08C392.893 1275.56 368.33 1215.94 379.621 1144.43C491.542 1297.35 642.486 1374.21 829.68 1388.08C698.149 1442.35 528.188 1415.81 440.831 1325.08Z" fill="black"/>
<path d="M1066.37 940.203C1048.93 933.864 1024.17 926.139 1000.6 915.442C991.29 911.084 981.782 901.179 978.414 891.671C975.245 882.757 979.801 870.872 980.99 860.373C989.507 861.363 999.808 859.581 1006.35 863.939C1043.98 888.898 1084.39 896.029 1128.76 889.294C1137.28 887.907 1152.53 895.633 1155.9 902.962C1162.84 918.215 1149.56 926.535 1136.09 929.308C1116.09 933.468 1095.68 935.845 1066.17 940.401L1066.37 940.203Z" fill="black"/>
</svg>
