<svg width="2281" height="684" viewBox="0 0 2281 684" fill="none" xmlns="http://www.w3.org/2000/svg">
<path d="M1303.18 253.109C1351.13 211.909 1424.37 212.179 1473.37 254.782C1521.16 296.423 1533.65 368.679 1495.22 425.633C1478.23 450.701 1455.26 468.311 1426.31 477.334C1386.08 489.854 1348.03 484.03 1312.63 460.892C1304.9 469.711 1297.2 478.237 1289.68 487.049C1288.79 488.086 1288.95 490.218 1289.26 491.799C1290.51 498.333 1293.43 504.809 1293.16 511.271C1292.09 539.38 1267.06 560.164 1238.34 557.154C1234.81 556.775 1232.69 557.562 1230.44 560.239C1222.32 569.701 1213.8 578.884 1205.46 588.144C1200.46 593.683 1194.11 595.626 1186.76 594.125C1178.39 592.367 1171.85 587.736 1166.41 581.35C1157.64 570.975 1157.84 561.289 1166.82 551.084C1171.65 545.677 1176.4 540.23 1180.67 535.387C1171.63 531.264 1162.48 527.815 1154.13 523.081C1145.61 518.27 1137.84 512.258 1130.61 507.317C1130.38 507.701 1130.15 508.087 1129.92 508.473C1142.22 481.896 1147.66 456.75 1149.3 438.818C1163.46 460.716 1182.68 475.387 1209.09 479.832C1210.35 479.996 1212.42 479.086 1213.09 478.057C1222.92 462.376 1240.65 454 1258.84 462.703C1259.86 463.169 1262.23 462.499 1263.07 461.548C1270.86 453.061 1278.51 444.412 1286.13 435.847C1238.19 375.106 1252.72 296.451 1303.18 253.109ZM1234.95 497.692C1218.52 514.066 1201.22 529.635 1188 548.913C1188.44 549.317 1188.87 549.721 1189.3 550.125C1204.78 532.904 1220.34 515.721 1235.82 498.5C1235.52 498.259 1235.25 497.932 1234.95 497.692ZM1426.88 261.363C1378.31 239.527 1319.52 262.925 1296.62 313.383C1274.3 362.563 1296.59 421.484 1345.39 443.941C1396.42 467.409 1455.58 442.741 1476.27 394.876L1476.39 394.83C1498.01 349.445 1481.68 286.039 1426.88 261.363ZM1426.83 288.396C1452.68 304.915 1466.82 331.317 1462.81 362.924C1459.15 392.215 1438.17 414.03 1416.79 422.284C1436.36 404.667 1449.88 384.288 1451.68 357.744C1453.44 331.495 1445.26 308.528 1426.83 288.396Z" fill="black"/>
<path d="M840.81 379.838L888.972 402.503L871.716 422.254L832.066 456.329L840.81 473.327L799.73 456.329L741.653 432.248C730.795 422.333 707.095 402.503 699.158 402.503C689.236 402.503 682.156 367.088 682.156 360.006C682.156 352.923 701.997 321.761 709.079 311.845C714.745 303.912 720.88 292.486 723.239 287.765L818.147 321.761L840.81 379.838Z" fill="#235EE7"/>
<path d="M1225.43 235.151L1179.95 184.793H1072.59L960.26 209.972L940.755 269.107C940.755 269.107 933.574 322.567 933.219 332.054C932.864 341.54 906.09 391.011 906.09 391.011L804.754 488.534L785.516 532.597L804.754 591.288L839.685 616.911L932.864 651.842L1007.43 621.521L1106.28 569.656L1133.41 499.085L1143.96 454.844L1179.95 418.317L1213.47 385.337L1225.43 323.809L1234.3 261.748L1225.43 235.151ZM1091.83 330.281C1083.23 332.763 1080.21 325.848 1078.09 319.73C1070.2 297.123 1062.84 274.338 1054.95 250.666C1087.39 247.563 1087.66 247.563 1096.88 277.884C1100.52 289.498 1102.73 301.555 1105.66 313.436C1108.67 325.404 1099.81 327.887 1091.83 330.281ZM1194.67 323.809C1189.88 299.516 1185.1 275.047 1179.95 249.248C1184.65 248.45 1190.59 247.031 1196.62 246.854C1198.75 246.765 1202.38 249.513 1202.83 251.553C1206.82 268.929 1211.6 286.306 1213.2 303.949C1214.53 318.666 1211.16 320.44 1194.67 323.809Z" fill="#F7BF33"/>
<path d="M1247.85 189.488C1218.95 176.278 1188.09 171.934 1156.89 171.579C1114.6 171.047 1072.22 171.934 1029.93 173.885C999.964 175.303 970.441 180.711 942.336 191.971C913.7 203.408 904.036 217.593 904.479 248.18C904.568 254.297 905.189 260.503 905.189 266.62C905.011 294.37 905.632 322.031 903.947 349.693C903.415 357.938 897.919 367.247 892.156 373.63C882.847 383.914 869.726 383.648 857.934 378.329C849.157 374.428 841.001 368.399 839.848 356.519C842.508 357.672 844.281 358.47 846.054 359.268C875.754 373.719 889.585 366.006 890.649 332.848C891.535 301.64 890.826 270.433 890.471 239.225C890.205 216.263 899.958 199.595 919.817 188.158C941.804 175.48 965.742 169.097 990.3 164.31C1043.85 153.759 1098.02 151.897 1152.37 152.695C1190.05 153.139 1226.84 156.419 1258.31 182.928C1257.96 178.849 1258.31 176.012 1257.34 173.619C1252.46 161.827 1247.14 150.124 1242.09 138.422C1214.69 73.7901 1170.1 29.1067 1100.24 11.2865C1057.06 0.204342 1014.15 -3.07599 970.086 4.54856C860.771 23.344 790.466 108.721 784.437 216.086C783.107 238.516 785.856 261.212 786.653 281.426C765.996 273.979 743.832 264.049 720.604 258.198C677.693 247.47 644.003 267.241 637.354 306.339C635.226 318.751 636.822 332.67 640.191 344.905C656.415 402.621 697.198 437.109 751.279 457.855C764.046 462.731 777.433 466.189 790.82 470.444C790.022 472.395 789.402 474.168 788.515 475.852C772.823 507.858 769.808 540.306 784.26 573.73C785.59 576.922 783.994 582.507 781.955 585.788C769.986 604.051 757.396 621.96 744.984 639.957C745.516 641.199 745.96 642.44 746.492 643.681C762.539 641.021 778.94 639.603 794.633 635.525C815.29 630.028 832.401 631.89 852.881 642.085C922.3 676.75 991.098 668.151 1055.29 627.013C1110.7 591.55 1144.92 541.636 1149.88 474.168C1150.15 470.621 1153.96 466.809 1157.06 464.327C1170.19 453.777 1185.08 445.088 1196.52 433.031C1217.17 411.31 1225.86 383.205 1232.6 354.48C1233.49 350.579 1236.24 345.614 1239.6 343.93C1249.09 339.054 1251.49 330.808 1250.95 321.943C1249.45 292.774 1247.32 263.695 1244.92 234.615C1244.39 227.877 1243.77 223.001 1251.04 218.302C1265.49 208.993 1263.72 196.758 1247.85 189.488ZM972.568 33.7169C1017.87 26.6243 1063.18 27.5109 1106.97 42.1394C1153.43 57.6545 1184.46 90.0145 1201.57 133.989C1173.64 132.304 1145.45 130.708 1117.26 128.669C1114.69 128.492 1110.87 126.098 1109.9 123.793C1083.3 59.9596 1004.57 37.4405 949.429 45.5084C937.46 47.2815 925.403 48.966 913.434 50.6505C913.168 49.6753 912.99 48.7 912.725 47.7248C932.672 43.026 952.443 36.9086 972.568 33.7169ZM1070.89 568.588C1015.48 574.174 965.653 557.683 918.665 529.401C887.989 510.872 860.771 488.974 842.951 456.259C853.945 447.127 864.849 438.084 876.464 428.509C905.366 463.706 942.779 485.605 984.448 501.297C1025.67 516.901 1067.34 527.096 1115.4 516.457C1104.93 533.568 1096.78 548.374 1087.03 561.85C1084.1 565.928 1076.56 568.056 1070.89 568.588ZM1059.1 452.181C1010.87 443.315 975.849 422.924 940.74 383.028C960.777 359.533 958.738 331.34 957.142 303.236C956.433 291.356 955.103 279.476 955.192 267.596C955.546 238.605 969.288 220.873 997.836 215.731C1022.31 211.298 1047.31 208.638 1072.13 206.865C1099.79 205.003 1127.63 203.939 1155.29 204.471C1167.53 204.737 1179.85 209.17 1191.64 213.16C1195.72 214.578 1198.2 220.43 1203.7 226.902C1182.42 228.498 1164.96 230.891 1147.4 230.803C1102.72 230.714 1058.12 229.296 1013.44 229.03C1003.16 228.941 992.782 230.98 982.675 232.93C970.086 235.413 964.235 244.101 962.461 256.425C956.433 298.271 970.529 324.602 1007.85 344.107C1053.51 368.045 1096.95 363.08 1138.54 335.419C1150.15 327.705 1159.02 328.149 1169.83 335.33C1180.65 342.511 1192.35 348.54 1204.41 355.455C1190.49 426.825 1132.15 465.657 1059.1 452.181ZM1091.81 330.277C1083.21 332.759 1080.2 325.844 1078.07 319.726C1070.18 297.119 1062.82 274.334 1054.93 250.662C1087.38 247.559 1087.65 247.559 1096.87 277.88C1100.5 289.494 1102.72 301.551 1105.64 313.432C1108.66 325.4 1099.79 327.883 1091.81 330.277ZM1194.66 323.804C1189.87 299.512 1185.08 275.043 1179.94 249.243C1184.64 248.446 1190.58 247.027 1196.61 246.85C1198.73 246.761 1202.37 249.509 1202.81 251.549C1206.8 268.925 1211.59 286.302 1213.18 303.945C1214.51 318.662 1211.15 320.436 1194.66 323.804ZM836.479 231.423C852.881 231.601 858.2 237.097 858.111 253.765C858.111 266.975 851.728 275.132 841.178 275.309C830.184 275.486 821.319 263.251 821.23 247.736C821.23 235.768 825.308 231.335 836.479 231.423ZM720.072 323.804C728.937 306.073 770.252 304.92 795.608 323.184C798.268 325.134 799.154 329.567 800.75 332.936C808.552 348.983 813.871 367.069 824.776 380.723C833.642 391.805 849.068 397.745 862.19 406.433C861.392 407.675 859.53 410.6 857.579 413.437C857.225 413.969 856.427 414.324 855.895 414.679C825.308 402.532 794.81 390.475 764.223 378.418C763.78 379.215 763.336 379.925 762.893 380.634C790.022 396.947 817.063 413.349 844.192 429.662C833.731 447.748 831.071 448.723 809.172 444.911C773.266 438.527 675.743 376.999 720.072 323.804ZM833.376 593.324C811.921 571.159 800.927 544.473 805.981 512.468C856.072 580.911 923.629 615.311 1007.41 621.517C948.542 645.809 872.474 633.929 833.376 593.324Z" fill="black"/>
<path d="M1113.34 421.064C1105.54 418.227 1094.46 414.77 1083.91 409.982C1079.74 408.032 1075.48 403.599 1073.98 399.343C1072.56 395.354 1074.6 390.034 1075.13 385.335C1078.94 385.779 1083.55 384.981 1086.48 386.931C1103.32 398.102 1121.41 401.294 1141.27 398.279C1145.08 397.659 1151.91 401.116 1153.41 404.397C1156.52 411.223 1150.58 414.947 1144.55 416.188C1135.59 418.05 1126.46 419.114 1113.25 421.153L1113.34 421.064Z" fill="black"/>
<path d="M250.457 253.232L109.048 483.121H44.4164L0.796875 253.232H95.5718L122.08 413.525L219.072 253.232H250.457Z" fill="black"/>
<path d="M359.941 253.236L311.002 483.125H222.078L271.017 253.236H359.941ZM380.598 176.458C380.598 195.342 375.012 208.907 363.753 217.063C352.493 225.308 337.954 229.387 319.956 229.387C304.352 229.387 293.447 227.082 287.153 222.471C280.858 217.861 277.755 210.857 277.755 201.548C277.755 182.664 283.252 169.188 294.334 160.943C305.416 152.698 319.956 148.62 337.865 148.62C353.114 148.62 364.019 151.013 370.668 155.801C377.229 160.588 380.509 167.504 380.509 176.458H380.598Z" fill="black"/>
<path d="M620.864 308.022C620.864 315.824 620.155 324.513 618.647 334.088C617.14 343.663 615.19 354.124 612.796 365.472L587.617 483.121H498.694L523.872 365.472C527.153 350.844 529.547 338.432 531.054 328.413C532.561 318.395 533.27 309.973 533.27 303.057C533.27 293.216 531.586 286.478 528.128 282.843C524.67 279.297 519.351 277.435 512.17 277.435C507.382 277.435 502.151 277.79 496.477 278.588C490.803 279.297 486.016 280.272 482.115 281.514L439.47 483.121H350.547L397.269 262.63C404.185 260.856 412.341 258.995 421.739 257.221C431.137 255.448 441.332 253.852 452.237 252.523C463.142 251.193 474.49 250.04 486.37 249.154C498.162 248.267 510.219 247.824 522.543 247.824C540.806 247.824 556.232 248.888 568.822 250.927C581.411 252.966 591.518 256.424 599.143 261.034C606.767 265.644 612.264 271.85 615.722 279.652C619.179 287.454 620.864 296.851 620.864 307.934V308.022Z" fill="black"/>
<path d="M1780.67 322.833C1780.67 334.801 1778.98 348.986 1775.7 365.477C1771.54 385.868 1765.51 403.6 1757.7 418.937C1749.9 434.186 1739.71 447.042 1727.21 457.326C1714.71 467.61 1699.37 475.412 1681.37 480.643C1663.37 485.874 1642.27 488.534 1618.07 488.534C1593.87 488.534 1571.7 487.026 1551.58 484.012C1531.54 480.998 1516.11 477.54 1505.3 473.639L1572.68 158.018H1661.6L1640.94 255.896C1646.88 254.123 1654.95 252.261 1664.97 250.488C1674.99 248.715 1685.36 247.828 1696.18 247.828C1725.17 247.828 1746.53 254.034 1760.19 266.446C1773.84 278.858 1780.58 297.654 1780.58 322.833H1780.67ZM1694.05 308.47C1694.05 298.895 1692.36 291.093 1688.91 285.153C1685.45 279.213 1679.42 276.199 1670.73 276.199C1664.7 276.199 1658.5 276.553 1651.85 277.351C1645.29 278.06 1639.88 279.213 1635.71 280.72L1598.48 455.376C1601.76 456.262 1605.83 457.326 1610.62 458.479C1615.41 459.631 1621.26 460.252 1628.18 460.252C1636.24 460.252 1643.25 457.592 1649.28 452.184C1655.22 446.776 1660.45 439.772 1664.79 431.083C1669.14 422.395 1672.95 412.377 1676.23 401.029C1679.51 389.68 1682.52 377.8 1685.18 365.565C1687.58 355.104 1689.7 344.997 1691.48 335.245C1693.25 325.492 1694.14 316.626 1694.14 308.559L1694.05 308.47Z" fill="black"/>
<path d="M2034.32 305.72C2034.32 309.355 2033.62 314.143 2032.11 320.083C2029.71 329.658 2025.64 338.435 2019.78 346.326C2013.93 354.305 2004.98 361.043 1992.83 366.717C1980.69 372.391 1964.82 376.735 1945.22 379.749C1925.63 382.764 1900.81 384.271 1870.93 384.271C1869.42 390.566 1868.27 396.328 1867.56 401.559C1866.85 406.79 1866.41 411.932 1866.41 417.074C1866.41 430.816 1869.69 441.278 1876.25 448.282C1882.81 455.286 1894.78 458.832 1912.15 458.832C1919.07 458.832 1926.16 458.566 1933.52 457.945C1940.88 457.325 1947.88 456.527 1954.62 455.463C1961.36 454.399 1967.39 453.247 1972.8 452.094C1978.2 450.941 1982.37 449.878 1985.39 448.991L1982.28 476.386C1972.71 479.666 1958.08 482.504 1938.49 484.897C1918.89 487.291 1895.49 488.532 1868.18 488.532C1837.06 488.532 1814.99 482.238 1801.95 469.648C1788.92 457.059 1782.45 438.795 1782.45 414.858C1782.45 401.116 1784.58 384.626 1788.74 365.476C1796.54 328.328 1812.41 299.514 1836.35 278.857C1860.29 258.2 1893.36 247.916 1935.56 247.916C1953.2 247.916 1968.27 249.6 1980.69 252.88C1993.1 256.161 2003.29 260.594 2011.18 266.09C2019.08 271.587 2024.93 277.882 2028.74 284.708C2032.46 291.624 2034.32 298.628 2034.32 305.809V305.72ZM1949.92 299.869C1949.92 293.308 1948.59 287.457 1945.84 282.403C1943.1 277.35 1937.86 274.779 1930.15 274.779C1922.97 274.779 1916.59 276.907 1911.09 281.074C1905.59 285.24 1900.63 291.003 1896.28 298.362C1891.94 305.72 1888.22 314.497 1885.02 324.87C1881.83 335.243 1879 346.503 1876.25 358.738C1885.82 358.738 1895.13 357.674 1904.09 355.635C1913.04 353.507 1920.93 350.138 1927.67 345.35C1934.41 340.563 1939.82 334.534 1943.8 327.175C1947.88 319.817 1949.83 310.774 1949.83 300.046L1949.92 299.869Z" fill="black"/>
<path d="M2280.36 305.72C2280.36 309.355 2279.65 314.143 2278.15 320.083C2275.75 329.658 2271.68 338.435 2265.82 346.326C2259.97 354.305 2251.02 361.043 2238.87 366.717C2226.73 372.391 2210.86 376.735 2191.26 379.749C2171.67 382.764 2146.85 384.271 2116.97 384.271C2115.46 390.566 2114.31 396.328 2113.6 401.559C2112.89 406.79 2112.45 411.932 2112.45 417.074C2112.45 430.816 2115.73 441.278 2122.29 448.282C2128.85 455.286 2140.82 458.832 2158.19 458.832C2165.11 458.832 2172.2 458.566 2179.56 457.945C2186.92 457.325 2193.92 456.527 2200.66 455.463C2207.4 454.399 2213.43 453.247 2218.84 452.094C2224.24 450.941 2228.41 449.878 2231.42 448.991L2228.32 476.386C2218.75 479.666 2204.12 482.504 2184.52 484.897C2164.93 487.291 2141.53 488.532 2114.22 488.532C2083.1 488.532 2061.02 482.238 2047.99 469.648C2034.96 457.059 2028.49 438.795 2028.49 414.858C2028.49 401.116 2030.62 384.626 2034.78 365.476C2042.58 328.328 2058.45 299.514 2082.39 278.857C2106.33 258.2 2139.4 247.916 2181.6 247.916C2199.24 247.916 2214.31 249.6 2226.73 252.88C2239.14 256.161 2249.33 260.594 2257.22 266.09C2265.11 271.587 2270.97 277.882 2274.78 284.708C2278.5 291.624 2280.36 298.628 2280.36 305.809V305.72ZM2195.96 299.869C2195.96 293.308 2194.63 287.457 2191.88 282.403C2189.13 277.35 2183.9 274.779 2176.19 274.779C2169.01 274.779 2162.63 276.907 2157.13 281.074C2151.63 285.24 2146.67 291.003 2142.32 298.362C2137.98 305.72 2134.26 314.497 2131.06 324.87C2127.87 335.243 2125.04 346.503 2122.29 358.738C2131.86 358.738 2141.17 357.674 2150.13 355.635C2159.08 353.507 2166.97 350.138 2173.71 345.35C2180.45 340.563 2185.85 334.534 2189.84 327.175C2193.92 319.817 2195.87 310.774 2195.87 300.046L2195.96 299.869Z" fill="black"/>
</svg>
