<svg xmlns="http://www.w3.org/2000/svg" width="12" height="17" viewBox="0 0 12 17" fill="none">
<path d="M5.98308 0C3.75607 0 1.94556 1.81051 1.94556 4.03752C1.94556 6.22203 3.65407 7.99004 5.88108 8.06654C5.94908 8.05804 6.01708 8.05804 6.06808 8.06654C6.08508 8.06654 6.09358 8.06654 6.11058 8.06654C6.11908 8.06654 6.11908 8.06654 6.12758 8.06654C8.30359 7.99004 10.0121 6.22203 10.0206 4.03752C10.0206 1.81051 8.21009 0 5.98308 0Z" fill="#898989"/>
<path d="M10.302 10.3274C7.93051 8.74644 4.06302 8.74644 1.67451 10.3274C0.595003 11.05 0 12.0275 0 13.073C0 14.1185 0.595003 15.0875 1.66601 15.8015C2.85602 16.6005 4.41999 17 5.984 17C7.54801 17 9.11202 16.6005 10.302 15.8015C11.373 15.079 11.968 14.11 11.968 13.056C11.9595 12.0105 11.373 11.0415 10.302 10.3274Z" fill="#898989"/>
</svg>