<svg width="2281" height="684" viewBox="0 0 2281 684" fill="none" xmlns="http://www.w3.org/2000/svg">
<path d="M1303.18 253.623C1351.13 212.423 1424.37 212.692 1473.37 255.296C1521.15 296.936 1533.65 369.192 1495.22 426.146C1478.23 451.214 1455.26 468.826 1426.31 477.848C1386.08 490.369 1348.04 484.544 1312.63 461.405C1304.9 470.225 1297.2 478.751 1289.68 487.563C1288.79 488.6 1288.95 490.731 1289.26 492.312C1290.51 498.846 1293.43 505.322 1293.16 511.784C1292.09 539.894 1267.06 560.678 1238.34 557.668C1234.8 557.29 1232.69 558.076 1230.44 560.753C1222.32 570.215 1213.8 579.398 1205.46 588.658C1200.46 594.197 1194.11 596.139 1186.76 594.639C1178.39 592.88 1171.85 588.25 1166.41 581.864C1157.64 571.488 1157.84 561.802 1166.82 551.598C1171.65 546.19 1176.4 540.743 1180.67 535.9C1171.63 531.777 1162.48 528.328 1154.13 523.595C1145.61 518.783 1137.84 512.772 1130.61 507.831C1130.38 508.212 1130.15 508.595 1129.92 508.979C1142.22 482.405 1147.66 457.262 1149.3 439.333C1163.46 461.231 1182.68 475.901 1209.09 480.346C1210.35 480.511 1212.42 479.6 1213.09 478.571C1222.92 462.89 1240.65 454.514 1258.84 463.217C1259.86 463.683 1262.23 463.013 1263.07 462.061C1270.86 453.575 1278.51 444.925 1286.13 436.361C1238.19 375.619 1252.72 296.965 1303.18 253.623ZM1234.95 498.206C1218.52 514.581 1201.22 530.148 1188 549.427C1188.44 549.831 1188.87 550.234 1189.3 550.638C1204.78 533.417 1220.34 516.234 1235.82 499.013C1235.52 498.772 1235.25 498.447 1234.95 498.206ZM1426.88 261.878C1378.31 240.041 1319.52 263.438 1296.62 313.896C1274.3 363.076 1296.59 421.998 1345.39 444.455C1396.42 467.923 1455.58 443.255 1476.27 395.389L1476.39 395.343C1498.01 349.959 1481.68 286.553 1426.88 261.878ZM1426.83 288.91C1452.68 305.43 1466.82 331.831 1462.81 363.438C1459.15 392.729 1438.17 414.543 1416.79 422.797C1436.36 405.18 1449.88 384.801 1451.68 358.257C1453.44 332.008 1445.26 309.043 1426.83 288.91Z" fill="white"/>
<path d="M1247.85 190.002C1218.95 176.792 1188.09 172.448 1156.89 172.094C1114.6 171.562 1072.22 172.448 1029.93 174.399C999.964 175.817 970.441 181.225 942.336 192.485C913.7 203.922 904.036 218.107 904.479 248.694C904.568 254.811 905.189 261.017 905.189 267.135C905.011 294.884 905.632 322.546 903.947 350.207C903.415 358.452 897.919 367.761 892.156 374.144C882.847 384.429 869.726 384.163 857.934 378.843C849.157 374.942 841.001 368.913 839.848 357.033C842.508 358.186 844.281 358.984 846.054 359.782C875.754 374.233 889.585 366.52 890.649 333.362C891.535 302.154 890.826 270.947 890.471 239.739C890.205 216.777 899.958 200.109 919.817 188.673C941.804 175.995 965.742 169.611 990.3 164.824C1043.85 154.273 1098.02 152.412 1152.37 153.21C1190.05 153.653 1226.84 156.933 1258.31 183.442C1257.96 179.364 1258.31 176.526 1257.34 174.133C1252.46 162.341 1247.14 150.638 1242.09 138.936C1214.69 74.3043 1170.1 29.6209 1100.24 11.8007C1057.06 0.718503 1014.15 -2.56183 970.086 5.06272C860.771 23.8581 790.466 109.235 784.437 216.6C783.107 239.03 785.856 261.726 786.653 281.94C765.996 274.493 743.832 264.563 720.604 258.712C677.693 247.984 644.003 267.755 637.354 306.853C635.226 319.265 636.822 333.184 640.191 345.419C656.415 403.135 697.198 437.623 751.279 458.369C764.046 463.245 777.433 466.703 790.82 470.958C790.022 472.909 789.402 474.682 788.515 476.366C772.823 508.372 769.808 540.821 784.26 574.244C785.59 577.436 783.994 583.022 781.955 586.302C769.986 604.565 757.396 622.474 744.984 640.472C745.516 641.713 745.96 642.954 746.492 644.195C762.539 641.536 778.94 640.117 794.633 636.039C815.29 630.542 832.401 632.404 852.881 642.599C922.3 677.265 991.098 668.665 1055.29 627.528C1110.7 592.065 1144.92 542.15 1149.88 474.682C1150.15 471.136 1153.96 467.323 1157.06 464.841C1170.19 454.291 1185.08 445.602 1196.52 433.545C1217.17 411.824 1225.86 383.719 1232.6 354.994C1233.49 351.093 1236.24 346.128 1239.6 344.444C1249.09 339.568 1251.49 331.323 1250.95 322.457C1249.45 293.289 1247.32 264.209 1244.92 235.129C1244.39 228.391 1243.77 223.515 1251.04 218.816C1265.49 209.507 1263.72 197.272 1247.85 190.002ZM972.568 34.2311C1017.87 27.1385 1063.18 28.025 1106.97 42.6535C1153.43 58.1686 1184.46 90.5286 1201.57 134.503C1173.64 132.818 1145.45 131.222 1117.26 129.183C1114.69 129.006 1110.87 126.612 1109.9 124.307C1083.3 60.4737 1004.57 37.9547 949.429 46.0225C937.46 47.7957 925.403 49.4802 913.434 51.1647C913.168 50.1894 912.99 49.2142 912.725 48.239C932.672 43.5401 952.443 37.4227 972.568 34.2311ZM1070.89 569.102C1015.48 574.688 965.653 558.197 918.665 529.916C887.989 511.386 860.771 489.488 842.951 456.773C853.945 447.641 864.849 438.598 876.464 429.023C905.366 464.22 942.779 486.119 984.448 501.811C1025.67 517.415 1067.34 527.611 1115.4 516.972C1104.93 534.083 1096.78 548.888 1087.03 562.364C1084.1 566.443 1076.56 568.57 1070.89 569.102ZM1059.1 452.695C1010.87 443.829 975.849 423.438 940.74 383.542C960.777 360.048 958.738 331.855 957.142 303.75C956.433 291.87 955.103 279.99 955.191 268.11C955.546 239.119 969.288 221.387 997.836 216.245C1022.31 211.812 1047.31 209.152 1072.13 207.379C1099.79 205.518 1127.63 204.454 1155.29 204.986C1167.53 205.252 1179.85 209.684 1191.64 213.674C1195.72 215.093 1198.2 220.944 1203.7 227.416C1182.42 229.012 1164.96 231.406 1147.4 231.317C1102.72 231.228 1058.12 229.81 1013.44 229.544C1003.16 229.455 992.782 231.494 982.675 233.445C970.086 235.927 964.235 244.616 962.461 256.939C956.433 298.785 970.529 325.117 1007.85 344.621C1053.51 368.559 1096.95 363.594 1138.54 335.933C1150.15 328.22 1159.02 328.663 1169.83 335.844C1180.65 343.025 1192.35 349.054 1204.41 355.969C1190.49 427.339 1132.15 466.171 1059.1 452.695ZM1091.81 330.791C1083.21 333.273 1080.2 326.358 1078.07 320.24C1070.18 297.633 1037.82 277.951 1029.93 254.279C997.836 275.823 1020.71 259.17 1029.93 289.491C1033.56 301.105 1046.24 318.911 1049.16 330.791C1052.18 342.759 1099.79 328.397 1091.81 330.791ZM1194.66 324.319C1189.87 300.026 1185.08 275.557 1179.94 249.758C1184.64 248.96 1190.58 247.541 1196.61 247.364C1198.73 247.275 1138.09 242.006 1138.54 244.045C1142.52 261.422 1168.24 302.598 1169.83 320.24C1207.54 338.829 1211.15 320.95 1194.66 324.319ZM836.479 231.937C852.881 232.115 858.2 237.612 858.111 254.279C858.111 267.489 851.728 275.646 841.178 275.823C830.184 276 821.319 263.766 821.23 248.25C821.23 236.282 825.308 231.849 836.479 231.937ZM720.072 324.319C728.937 306.587 770.252 305.435 795.608 323.698C798.268 325.649 799.154 330.081 800.75 333.45C808.552 349.497 813.871 367.584 824.776 381.237C833.642 392.319 849.068 398.259 862.19 406.948C861.392 408.189 859.53 411.114 857.579 413.951C857.225 414.483 856.427 414.838 855.895 415.193C825.308 403.047 794.81 390.989 764.223 378.932C763.78 379.73 763.336 380.439 762.893 381.148C790.022 397.461 817.063 413.863 844.192 430.176C833.731 448.262 831.071 449.237 809.172 445.425C773.266 439.042 675.743 377.513 720.072 324.319ZM833.376 593.838C811.921 571.673 800.927 544.987 805.981 512.982C856.072 581.426 923.629 615.825 1007.41 622.031C948.542 646.323 872.474 634.443 833.376 593.838Z" fill="white"/>
<path d="M1113.34 421.579C1105.54 418.742 1094.46 415.284 1083.91 410.496C1079.74 408.546 1075.48 404.113 1073.98 399.857C1072.56 395.868 1074.6 390.548 1075.13 385.85C1078.94 386.293 1083.55 385.495 1086.48 387.445C1103.32 398.616 1121.41 401.808 1141.27 398.794C1145.08 398.173 1151.91 401.631 1153.41 404.911C1156.52 411.738 1150.58 415.461 1144.55 416.702C1135.59 418.564 1126.46 419.628 1113.25 421.667L1113.34 421.579Z" fill="white"/>
<path d="M250.457 253.746L109.048 483.635H44.4164L0.796875 253.746H95.5718L122.08 414.039L219.072 253.746H250.457Z" fill="white"/>
<path d="M359.941 253.75L311.002 483.639H222.078L271.017 253.75H359.941ZM380.598 176.972C380.598 195.856 375.012 209.421 363.753 217.577C352.493 225.823 337.954 229.901 319.956 229.901C304.352 229.901 293.447 227.596 287.153 222.986C280.858 218.375 277.755 211.371 277.755 202.062C277.755 183.178 283.252 169.702 294.334 161.457C305.416 153.212 319.956 149.134 337.865 149.134C353.114 149.134 364.019 151.528 370.668 156.315C377.229 161.103 380.509 168.018 380.509 176.972H380.598Z" fill="white"/>
<path d="M620.864 308.536C620.864 316.338 620.155 325.027 618.647 334.602C617.14 344.177 615.19 354.638 612.796 365.986L587.617 483.635H498.694L523.872 365.986C527.153 351.358 529.547 338.946 531.054 328.928C532.561 318.909 533.27 310.487 533.27 303.572C533.27 293.731 531.586 286.993 528.128 283.358C524.67 279.811 519.351 277.95 512.17 277.95C507.382 277.95 502.151 278.304 496.477 279.102C490.803 279.811 486.016 280.787 482.115 282.028L439.47 483.635H350.547L397.269 263.144C404.185 261.371 412.341 259.509 421.739 257.736C431.137 255.962 441.332 254.367 452.237 253.037C463.142 251.707 474.49 250.554 486.37 249.668C498.162 248.781 510.219 248.338 522.543 248.338C540.806 248.338 556.232 249.402 568.822 251.441C581.411 253.48 591.518 256.938 599.143 261.548C606.767 266.158 612.264 272.364 615.722 280.166C619.179 287.968 620.864 297.366 620.864 308.448V308.536Z" fill="white"/>
<path d="M1780.67 323.347C1780.67 335.315 1778.98 349.501 1775.7 365.991C1771.54 386.382 1765.51 404.114 1757.7 419.452C1749.9 434.701 1739.71 447.556 1727.21 457.84C1714.71 468.125 1699.37 475.926 1681.37 481.157C1663.37 486.388 1642.27 489.048 1618.07 489.048C1593.87 489.048 1571.7 487.54 1551.58 484.526C1531.54 481.512 1516.11 478.054 1505.3 474.153L1572.68 158.532H1661.6L1640.94 256.41C1646.88 254.637 1654.95 252.775 1664.97 251.002C1674.99 249.229 1685.36 248.342 1696.18 248.342C1725.17 248.342 1746.53 254.548 1760.19 266.96C1773.84 279.373 1780.58 298.168 1780.58 323.347H1780.67ZM1694.05 308.984C1694.05 299.409 1692.36 291.607 1688.91 285.667C1685.45 279.727 1679.42 276.713 1670.73 276.713C1664.7 276.713 1658.5 277.067 1651.85 277.865C1645.29 278.575 1639.88 279.727 1635.71 281.234L1598.48 455.89C1601.76 456.776 1605.83 457.84 1610.62 458.993C1615.41 460.145 1621.26 460.766 1628.18 460.766C1636.24 460.766 1643.25 458.106 1649.28 452.698C1655.22 447.29 1660.45 440.286 1664.79 431.598C1669.14 422.909 1672.95 412.891 1676.23 401.543C1679.51 390.194 1682.52 378.314 1685.18 366.08C1687.58 355.618 1689.7 345.511 1691.48 335.759C1693.25 326.006 1694.14 317.141 1694.14 309.073L1694.05 308.984Z" fill="white"/>
<path d="M2034.32 306.235C2034.32 309.869 2033.62 314.657 2032.11 320.597C2029.71 330.172 2025.64 338.949 2019.78 346.84C2013.93 354.819 2004.98 361.557 1992.83 367.231C1980.69 372.905 1964.82 377.249 1945.22 380.264C1925.63 383.278 1900.81 384.785 1870.93 384.785C1869.42 391.08 1868.27 396.843 1867.56 402.073C1866.85 407.304 1866.41 412.446 1866.41 417.588C1866.41 431.33 1869.69 441.792 1876.25 448.796C1882.81 455.8 1894.78 459.346 1912.15 459.346C1919.07 459.346 1926.16 459.08 1933.52 458.46C1940.88 457.839 1947.88 457.041 1954.62 455.977C1961.36 454.913 1967.39 453.761 1972.8 452.608C1978.2 451.456 1982.37 450.392 1985.39 449.505L1982.28 476.9C1972.71 480.181 1958.08 483.018 1938.49 485.411C1918.89 487.805 1895.49 489.046 1868.18 489.046C1837.06 489.046 1814.99 482.752 1801.95 470.162C1788.92 457.573 1782.45 439.31 1782.45 415.372C1782.45 401.63 1784.58 385.14 1788.74 365.99C1796.54 328.842 1812.41 300.028 1836.35 279.371C1860.29 258.714 1893.36 248.43 1935.56 248.43C1953.2 248.43 1968.27 250.114 1980.69 253.395C1993.1 256.675 2003.29 261.108 2011.18 266.605C2019.08 272.101 2024.93 278.396 2028.74 285.223C2032.46 292.138 2034.32 299.142 2034.32 306.323V306.235ZM1949.92 300.383C1949.92 293.822 1948.59 287.971 1945.84 282.918C1943.1 277.864 1937.86 275.293 1930.15 275.293C1922.97 275.293 1916.59 277.421 1911.09 281.588C1905.59 285.755 1900.63 291.517 1896.28 298.876C1891.94 306.234 1888.22 315.012 1885.02 325.385C1881.83 335.757 1879 347.017 1876.25 359.252C1885.82 359.252 1895.13 358.188 1904.09 356.149C1913.04 354.021 1920.93 350.652 1927.67 345.864C1934.41 341.077 1939.82 335.048 1943.8 327.69C1947.88 320.331 1949.83 311.288 1949.83 300.56L1949.92 300.383Z" fill="white"/>
<path d="M2280.36 306.235C2280.36 309.869 2279.65 314.657 2278.15 320.597C2275.75 330.172 2271.68 338.949 2265.82 346.84C2259.97 354.819 2251.02 361.557 2238.87 367.231C2226.73 372.905 2210.86 377.249 2191.26 380.264C2171.67 383.278 2146.85 384.785 2116.97 384.785C2115.46 391.08 2114.31 396.843 2113.6 402.073C2112.89 407.304 2112.45 412.446 2112.45 417.588C2112.45 431.33 2115.73 441.792 2122.29 448.796C2128.85 455.8 2140.82 459.346 2158.19 459.346C2165.11 459.346 2172.2 459.08 2179.56 458.46C2186.92 457.839 2193.92 457.041 2200.66 455.977C2207.4 454.913 2213.43 453.761 2218.84 452.608C2224.24 451.456 2228.41 450.392 2231.42 449.505L2228.32 476.9C2218.75 480.181 2204.12 483.018 2184.52 485.411C2164.93 487.805 2141.53 489.046 2114.22 489.046C2083.1 489.046 2061.02 482.752 2047.99 470.162C2034.96 457.573 2028.49 439.31 2028.49 415.372C2028.49 401.63 2030.62 385.14 2034.78 365.99C2042.58 328.842 2058.45 300.028 2082.39 279.371C2106.33 258.714 2139.4 248.43 2181.6 248.43C2199.24 248.43 2214.31 250.114 2226.73 253.395C2239.14 256.675 2249.33 261.108 2257.22 266.605C2265.11 272.101 2270.97 278.396 2274.78 285.223C2278.5 292.138 2280.36 299.142 2280.36 306.323V306.235ZM2195.96 300.383C2195.96 293.822 2194.63 287.971 2191.88 282.918C2189.13 277.864 2183.9 275.293 2176.19 275.293C2169.01 275.293 2162.63 277.421 2157.13 281.588C2151.63 285.755 2146.67 291.517 2142.32 298.876C2137.98 306.234 2134.26 315.012 2131.06 325.385C2127.87 335.757 2125.04 347.017 2122.29 359.252C2131.86 359.252 2141.17 358.188 2150.13 356.149C2159.08 354.021 2166.97 350.652 2173.71 345.864C2180.45 341.077 2185.85 335.048 2189.84 327.69C2193.92 320.331 2195.87 311.288 2195.87 300.56L2195.96 300.383Z" fill="white"/>
</svg>
