<svg width="177" height="53" viewBox="0 0 177 53" fill="none" xmlns="http://www.w3.org/2000/svg">
<g clip-path="url(#clip0_155_66)">
<path d="M101.124 19.609C104.844 16.412 110.528 16.4329 114.33 19.7388C118.038 22.97 119.008 28.5769 116.025 32.9964C114.707 34.9416 112.924 36.3082 110.678 37.0083C107.556 37.9799 104.604 37.5278 101.857 35.7324C101.257 36.4168 100.66 37.0784 100.076 37.7622C100.007 37.8427 100.019 38.0081 100.043 38.1308C100.14 38.6378 100.367 39.1402 100.346 39.6417C100.263 41.8229 98.3208 43.4358 96.0922 43.2022C95.8175 43.1728 95.6538 43.2339 95.4792 43.4416C94.8491 44.1759 94.188 44.8884 93.5408 45.607C93.1528 46.0368 92.6601 46.1874 92.0897 46.0709C91.4402 45.9345 90.9327 45.5753 90.5106 45.0796C89.8301 44.2746 89.8448 43.523 90.5417 42.7311C90.9172 42.3116 91.2858 41.8888 91.6172 41.513C90.9157 41.1931 90.2057 40.9255 89.5577 40.5582C88.8966 40.1849 88.2936 39.7183 87.7326 39.3349C87.7148 39.3647 87.6969 39.3945 87.6791 39.4243C88.6335 37.3622 89.0557 35.411 89.1829 34.0196C90.2817 35.7188 91.7731 36.8572 93.8225 37.2022C93.9202 37.215 94.0809 37.1443 94.1329 37.0644C94.8956 35.8475 96.2714 35.1977 97.6829 35.8729C97.7621 35.9092 97.946 35.8572 98.0112 35.7834C98.6157 35.1249 99.2093 34.4537 99.8006 33.7891C96.0806 29.0758 97.2081 22.9723 101.124 19.609ZM95.8291 38.5881C94.5542 39.8587 93.2118 41.0668 92.1859 42.5627C92.2201 42.594 92.2535 42.6253 92.2868 42.6567C93.488 41.3203 94.6954 39.987 95.8966 38.6507C95.8734 38.632 95.8524 38.6068 95.8291 38.5881ZM110.722 20.2495C106.954 18.5551 102.392 20.3707 100.615 24.2861C98.8826 28.1024 100.612 32.6745 104.399 34.4171C108.359 36.2382 112.949 34.324 114.555 30.6097L114.564 30.6061C116.242 27.0844 114.975 22.1643 110.722 20.2495ZM110.719 22.3472C112.724 23.629 113.822 25.6778 113.511 28.1305C113.227 30.4034 111.599 32.0961 109.939 32.7365C111.458 31.3695 112.507 29.7882 112.647 27.7284C112.783 25.6916 112.149 23.9095 110.719 22.3472Z" fill="white"/>
<path d="M65.2448 29.4429L68.982 31.2016L67.643 32.7343L64.5662 35.3784L65.2448 36.6974L62.057 35.3784L57.5504 33.5097C56.7079 32.7404 54.8688 31.2016 54.2529 31.2016C53.483 31.2016 52.9336 28.4536 52.9336 27.9039C52.9336 27.3544 54.4732 24.9362 55.0228 24.1668C55.4624 23.5512 55.9385 22.6646 56.1215 22.2982L63.4862 24.9362L65.2448 29.4429Z" fill="#235EE7"/>
<path d="M95.0904 18.2155L91.5612 14.3079H83.2303L74.5138 16.2617L73.0003 20.8504C73.0003 20.8504 72.443 24.9988 72.4155 25.7349C72.3879 26.471 70.3104 30.3099 70.3104 30.3099L62.4469 37.8775L60.9541 41.2966L62.4469 45.8509L65.1575 47.8391L72.3879 50.5497L78.1741 48.1969L85.8446 44.1723L87.9498 38.6961L88.7685 35.2632L91.5612 32.4288L94.1623 29.8696L95.0904 25.0951L95.7786 20.2794L95.0904 18.2155ZM84.7233 25.5974C84.056 25.79 83.8216 25.2534 83.6571 24.7787C83.0449 23.0244 82.4738 21.2563 81.8615 19.4194C84.3788 19.1786 84.3997 19.1786 85.1152 21.5315C85.3976 22.4327 85.5691 23.3684 85.7965 24.2902C86.0301 25.219 85.3425 25.4116 84.7233 25.5974ZM92.7035 25.0951C92.3318 23.2101 91.9608 21.3113 91.5612 19.3094C91.9259 19.2475 92.3868 19.1374 92.8548 19.1236C93.02 19.1167 93.3017 19.33 93.3366 19.4883C93.6463 20.8367 94.0172 22.1851 94.1413 23.5541C94.2445 24.6961 93.983 24.8337 92.7035 25.0951Z" fill="#F7BF33"/>
<path d="M96.8301 14.6722C94.5875 13.6472 92.1929 13.31 89.7718 13.2825C86.4902 13.2413 83.2016 13.31 79.92 13.4614C77.5947 13.5714 75.3038 13.9911 73.1229 14.8648C70.9009 15.7523 70.151 16.853 70.1853 19.2265C70.1922 19.7012 70.2404 20.1827 70.2404 20.6575C70.2266 22.8107 70.2748 24.9573 70.1441 27.1037C70.1028 27.7435 69.6763 28.4658 69.2291 28.9611C68.5067 29.7592 67.4886 29.7386 66.5736 29.3258C65.8925 29.0231 65.2596 28.5553 65.1701 27.6334C65.3765 27.7228 65.5141 27.7847 65.6517 27.8467C67.9563 28.968 69.0296 28.3695 69.1122 25.7965C69.1809 23.3749 69.1259 20.9533 69.0984 18.5316C69.0777 16.7498 69.8345 15.4564 71.3755 14.569C73.0817 13.5853 74.9392 13.0899 76.8448 12.7184C81.0002 11.8998 85.2036 11.7553 89.4211 11.8172C92.3449 11.8516 95.1998 12.1061 97.6418 14.1631C97.6146 13.8467 97.6418 13.6265 97.5665 13.4408C97.1878 12.5257 96.775 11.6177 96.3831 10.7096C94.2569 5.69431 90.7969 2.22699 85.3759 0.844185C82.0252 -0.0157664 78.6955 -0.270312 75.2763 0.321335C66.7937 1.77981 61.3382 8.40484 60.8704 16.7361C60.7672 18.4766 60.9805 20.2378 61.0423 21.8063C59.4394 21.2285 57.7195 20.458 55.9171 20.0039C52.5873 19.1715 49.973 20.7056 49.4571 23.7395C49.292 24.7027 49.4158 25.7828 49.6772 26.7321C50.9362 31.2108 54.1008 33.8869 58.2974 35.4968C59.2881 35.8751 60.3269 36.1435 61.3657 36.4737C61.3038 36.625 61.2556 36.7626 61.1868 36.8934C59.9692 39.3769 59.7352 41.8949 60.8566 44.4885C60.9598 44.7361 60.836 45.1695 60.6778 45.4241C59.749 46.8412 58.7721 48.2309 57.8089 49.6275C57.8502 49.7238 57.8847 49.8201 57.9259 49.9164C59.1711 49.7101 60.4438 49.6 61.6616 49.2835C63.2645 48.857 64.5923 49.0015 66.1815 49.7927C71.5682 52.4826 76.9068 51.8152 81.8879 48.6231C86.1876 45.8713 88.843 41.998 89.2279 36.7626C89.2488 36.4875 89.5445 36.1916 89.785 35.999C90.8039 35.1803 91.9593 34.5061 92.847 33.5705C94.4494 31.885 95.1237 29.7041 95.6467 27.4751C95.7158 27.1724 95.9292 26.7872 96.1899 26.6565C96.9263 26.2781 97.1125 25.6383 97.0706 24.9503C96.9542 22.687 96.789 20.4304 96.6027 18.1739C96.5616 17.6511 96.5135 17.2727 97.0776 16.9081C98.1989 16.1857 98.0616 15.2363 96.8301 14.6722ZM75.4689 2.58473C78.9842 2.03436 82.5001 2.10315 85.8981 3.23829C89.5033 4.44222 91.9112 6.95328 93.2389 10.3656C91.0716 10.2348 88.8841 10.1111 86.6966 9.95275C86.4972 9.93902 86.2008 9.75325 86.1255 9.57439C84.0614 4.62109 77.9522 2.87367 73.6733 3.49971C72.7446 3.63731 71.809 3.76802 70.8802 3.89873C70.8596 3.82305 70.8458 3.74738 70.8252 3.67171C72.373 3.30708 73.9072 2.83239 75.4689 2.58473ZM83.0984 44.0894C78.7987 44.5229 74.9323 43.2432 71.2861 41.0487C68.9058 39.6108 66.7937 37.9115 65.4109 35.3729C66.264 34.6643 67.1101 33.9626 68.0114 33.2196C70.2542 35.9508 73.1573 37.6501 76.3907 38.8678C79.5895 40.0786 82.823 40.8698 86.5523 40.0442C85.7398 41.372 85.1074 42.5208 84.3508 43.5665C84.1235 43.8831 83.5384 44.0481 83.0984 44.0894ZM82.1835 35.0565C78.441 34.3685 75.7235 32.7862 72.9991 29.6904C74.5539 27.8673 74.3957 25.6796 74.2719 23.4987C74.2168 22.5769 74.1136 21.655 74.1205 20.7331C74.148 18.4835 75.2144 17.1076 77.4296 16.7086C79.3287 16.3646 81.2687 16.1582 83.1946 16.0206C85.341 15.8762 87.5013 15.7936 89.6477 15.8349C90.5975 15.8555 91.5535 16.1995 92.4683 16.5091C92.7849 16.6192 92.9774 17.0732 93.4041 17.5754C91.7529 17.6992 90.398 17.885 89.0354 17.8781C85.5684 17.8712 82.1075 17.7612 78.6404 17.7405C77.8427 17.7336 77.0374 17.8918 76.2532 18.0432C75.2763 18.2358 74.8223 18.9101 74.6846 19.8663C74.2168 23.1135 75.3107 25.1568 78.2067 26.6702C81.7498 28.5277 85.1206 28.1425 88.3479 25.996C89.2488 25.3975 89.9371 25.4319 90.7759 25.9891C91.6155 26.5464 92.5234 27.0142 93.4592 27.5509C92.3791 33.0889 87.852 36.1022 82.1835 35.0565ZM84.7218 25.597C84.0544 25.7896 83.8209 25.2531 83.6556 24.7784C83.0433 23.0241 82.4722 21.256 81.86 19.4191C84.378 19.1783 84.399 19.1783 85.1144 21.5312C85.3961 22.4324 85.5684 23.3681 85.7949 24.2899C86.0293 25.2187 85.341 25.4113 84.7218 25.597ZM92.7027 25.0948C92.331 23.2098 91.9593 21.311 91.5604 19.3091C91.9251 19.2472 92.3861 19.137 92.854 19.1233C93.0185 19.1164 93.301 19.3297 93.3351 19.4879C93.6447 20.8364 94.0164 22.1848 94.1398 23.5537C94.243 24.6958 93.9823 24.8334 92.7027 25.0948ZM64.9087 17.9263C66.1815 17.94 66.5942 18.3666 66.5873 19.6599C66.5873 20.685 66.092 21.3179 65.2733 21.3317C64.4202 21.3454 63.7323 20.3961 63.7254 19.1921C63.7254 18.2634 64.0419 17.9194 64.9087 17.9263ZM55.8758 25.0948C56.5637 23.7189 59.7696 23.6295 61.7372 25.0466C61.9436 25.198 62.0124 25.542 62.1362 25.8034C62.7416 27.0487 63.1544 28.4521 64.0006 29.5115C64.6886 30.3715 65.8856 30.8324 66.9038 31.5066C66.8419 31.6029 66.6974 31.83 66.546 32.0501C66.5185 32.0914 66.4566 32.1189 66.4153 32.1464C64.0419 31.2039 61.6753 30.2683 59.3018 29.3327C59.2674 29.3946 59.233 29.4496 59.1986 29.5046C61.3038 30.7705 63.4021 32.0432 65.5072 33.3091C64.6955 34.7125 64.4891 34.7882 62.7897 34.4924C60.0035 33.9971 52.436 29.2226 55.8758 25.0948ZM64.6679 46.0088C63.0031 44.2889 62.15 42.2181 62.5421 39.7346C66.4291 45.0457 71.6713 47.715 78.1725 48.1965C73.6045 50.0815 67.7018 49.1597 64.6679 46.0088Z" fill="white"/>
<path d="M86.3925 32.642C85.7872 32.4218 84.9275 32.1535 84.1088 31.7821C83.7852 31.6307 83.4546 31.2867 83.3383 30.9565C83.2281 30.6469 83.3864 30.2341 83.4275 29.8695C83.7231 29.9039 84.0809 29.842 84.3082 29.9934C85.615 30.8601 87.0187 31.1078 88.5598 30.8739C88.8554 30.8257 89.3854 31.0941 89.5018 31.3486C89.7432 31.8784 89.2822 32.1672 88.8143 32.2636C88.119 32.408 87.4106 32.4906 86.3855 32.6488L86.3925 32.642Z" fill="white"/>
<path d="M19.4349 19.6185L8.46191 37.4574H3.44666L0.0618896 19.6185H7.41619L9.47316 32.0569L16.9995 19.6185H19.4349Z" fill="white"/>
<path d="M27.9305 19.6189L24.133 37.4577H17.2327L21.0302 19.6189H27.9305ZM29.5334 13.6611C29.5334 15.1264 29.1 16.179 28.2263 16.812C27.3525 17.4518 26.2244 17.7682 24.8278 17.7682C23.6169 17.7682 22.7707 17.5894 22.2823 17.2317C21.7939 16.8738 21.5531 16.3304 21.5531 15.608C21.5531 14.1426 21.9796 13.0969 22.8396 12.4571C23.6995 11.8174 24.8278 11.5009 26.2175 11.5009C27.4007 11.5009 28.2469 11.6867 28.7629 12.0581C29.272 12.4297 29.5265 12.9663 29.5265 13.6611H29.5334Z" fill="white"/>
<path d="M48.1775 23.8701C48.1775 24.4755 48.1225 25.1498 48.0054 25.8928C47.8885 26.6358 47.7372 27.4475 47.5514 28.3282L45.5976 37.4574H38.6974L40.6511 28.3282C40.9057 27.193 41.0915 26.2299 41.2084 25.4525C41.3254 24.675 41.3804 24.0215 41.3804 23.4849C41.3804 22.7213 41.2497 22.1984 40.9814 21.9164C40.7131 21.6411 40.3003 21.4967 39.7431 21.4967C39.3715 21.4967 38.9656 21.5242 38.5253 21.5861C38.0851 21.6411 37.7136 21.7169 37.4109 21.8132L34.1017 37.4574H27.2015L30.8271 20.3478C31.3637 20.2102 31.9966 20.0658 32.7259 19.9282C33.4551 19.7906 34.2462 19.6667 35.0924 19.5635C35.9386 19.4603 36.8192 19.3709 37.7411 19.3021C38.6561 19.2333 39.5917 19.1989 40.548 19.1989C41.9652 19.1989 43.1622 19.2815 44.1391 19.4397C45.116 19.5979 45.9003 19.8663 46.492 20.224C47.0836 20.5817 47.5101 21.0633 47.7785 21.6687C48.0467 22.2741 48.1775 23.0034 48.1775 23.8633V23.8701Z" fill="white"/>
<path d="M138.176 25.0194C138.176 25.9482 138.045 27.0489 137.79 28.3285C137.467 29.9108 136.999 31.2867 136.393 32.4769C135.788 33.6602 134.997 34.6577 134.027 35.4557C133.057 36.2538 131.867 36.8592 130.47 37.2651C129.073 37.671 127.436 37.8774 125.558 37.8774C123.68 37.8774 121.96 37.7605 120.399 37.5265C118.844 37.2926 117.646 37.0243 116.808 36.7216L122.036 12.2302H128.936L127.333 19.8253C127.794 19.6877 128.42 19.5432 129.198 19.4056C129.975 19.268 130.78 19.1992 131.619 19.1992C133.869 19.1992 135.526 19.6808 136.586 20.644C137.646 21.6071 138.169 23.0656 138.169 25.0194H138.176ZM131.454 23.9049C131.454 23.1619 131.323 22.5565 131.055 22.0955C130.787 21.6346 130.319 21.4007 129.645 21.4007C129.177 21.4007 128.696 21.4283 128.18 21.4901C127.67 21.5452 127.251 21.6346 126.927 21.7515L124.038 35.3044C124.293 35.3732 124.608 35.4557 124.98 35.5452C125.352 35.6346 125.806 35.6828 126.343 35.6828C126.968 35.6828 127.512 35.4764 127.98 35.0567C128.441 34.6371 128.847 34.0936 129.184 33.4194C129.521 32.7452 129.817 31.9678 130.071 31.0872C130.326 30.2066 130.559 29.2847 130.766 28.3354C130.952 27.5236 131.117 26.7393 131.255 25.9825C131.392 25.2257 131.461 24.5378 131.461 23.9118L131.454 23.9049Z" fill="white"/>
<path d="M157.858 23.6916C157.858 23.9736 157.804 24.3451 157.687 24.806C157.5 25.549 157.185 26.2301 156.73 26.8424C156.276 27.4616 155.582 27.9844 154.639 28.4247C153.697 28.865 152.465 29.2021 150.944 29.436C149.424 29.6699 147.498 29.7869 145.18 29.7869C145.062 30.2753 144.973 30.7225 144.918 31.1284C144.863 31.5343 144.829 31.9333 144.829 32.3323C144.829 33.3986 145.083 34.2105 145.592 34.754C146.101 35.2975 147.03 35.5726 148.378 35.5726C148.915 35.5726 149.465 35.552 150.036 35.5039C150.608 35.4557 151.151 35.3938 151.674 35.3112C152.197 35.2286 152.665 35.1392 153.084 35.0498C153.503 34.9604 153.827 34.8778 154.061 34.809L153.82 36.9348C153.077 37.1894 151.942 37.4095 150.422 37.5953C148.901 37.781 147.085 37.8773 144.966 37.8773C142.551 37.8773 140.839 37.3889 139.827 36.4119C138.816 35.435 138.314 34.0179 138.314 32.1603C138.314 31.094 138.479 29.8144 138.802 28.3284C139.407 25.4458 140.639 23.21 142.496 21.607C144.354 20.0041 146.92 19.2061 150.195 19.2061C151.564 19.2061 152.733 19.3367 153.697 19.5913C154.66 19.8458 155.45 20.1898 156.063 20.6164C156.676 21.0429 157.13 21.5313 157.425 22.0611C157.714 22.5977 157.858 23.1412 157.858 23.6984V23.6916ZM151.309 23.2375C151.309 22.7284 151.206 22.2743 150.992 21.8822C150.78 21.4901 150.373 21.2906 149.775 21.2906C149.218 21.2906 148.723 21.4557 148.296 21.779C147.869 22.1024 147.484 22.5495 147.147 23.1205C146.81 23.6916 146.521 24.3727 146.273 25.1776C146.025 25.9825 145.806 26.8562 145.592 27.8056C146.335 27.8056 147.057 27.723 147.753 27.5648C148.447 27.3997 149.059 27.1382 149.582 26.7668C150.105 26.3952 150.525 25.9274 150.834 25.3564C151.151 24.7854 151.302 24.0837 151.302 23.2512L151.309 23.2375Z" fill="white"/>
<path d="M176.95 23.6916C176.95 23.9736 176.895 24.3451 176.779 24.806C176.593 25.549 176.277 26.2301 175.822 26.8424C175.368 27.4616 174.674 27.9844 173.731 28.4247C172.789 28.865 171.557 29.2021 170.036 29.436C168.516 29.6699 166.59 29.7869 164.272 29.7869C164.155 30.2753 164.065 30.7225 164.01 31.1284C163.955 31.5343 163.921 31.9333 163.921 32.3323C163.921 33.3986 164.175 34.2105 164.685 34.754C165.194 35.2975 166.122 35.5726 167.47 35.5726C168.007 35.5726 168.557 35.552 169.129 35.5039C169.7 35.4557 170.243 35.3938 170.766 35.3112C171.289 35.2286 171.757 35.1392 172.177 35.0498C172.596 34.9604 172.919 34.8778 173.153 34.809L172.912 36.9348C172.17 37.1894 171.034 37.4095 169.513 37.5953C167.993 37.781 166.178 37.8773 164.058 37.8773C161.643 37.8773 159.93 37.3889 158.919 36.4119C157.908 35.435 157.406 34.0179 157.406 32.1603C157.406 31.094 157.571 29.8144 157.894 28.3284C158.499 25.4458 159.731 23.21 161.588 21.607C163.446 20.0041 166.012 19.2061 169.287 19.2061C170.656 19.2061 171.825 19.3367 172.789 19.5913C173.752 19.8458 174.543 20.1898 175.155 20.6164C175.767 21.0429 176.222 21.5313 176.517 22.0611C176.806 22.5977 176.95 23.1412 176.95 23.6984V23.6916ZM170.401 23.2375C170.401 22.7284 170.298 22.2743 170.085 21.8822C169.871 21.4901 169.465 21.2906 168.867 21.2906C168.31 21.2906 167.815 21.4557 167.388 21.779C166.961 22.1024 166.576 22.5495 166.239 23.1205C165.902 23.6916 165.613 24.3727 165.365 25.1776C165.118 25.9825 164.898 26.8562 164.685 27.8056C165.427 27.8056 166.15 27.723 166.845 27.5648C167.539 27.3997 168.152 27.1382 168.675 26.7668C169.198 26.3952 169.617 25.9274 169.926 25.3564C170.243 24.7854 170.394 24.0837 170.394 23.2512L170.401 23.2375Z" fill="white"/>
</g>
<defs>
<clipPath id="clip0_155_66">
<rect width="177" height="52.9991" fill="white"/>
</clipPath>
</defs>
</svg>
